ffmpeg version N-102852-g758e2da289 Copyright (c) 2000-2021 the FFmpeg developers
  built with gcc 7 (Ubuntu 7.5.0-3ubuntu1~18.04)
  configuration: --prefix=/home/aleksandr/ffmpeg_release_build --pkg-config-flags=--static --extra-cflags=-I/home/aleksandr/ffmpeg_release_build/include --extra-ldflags=-L/home/aleksandr/ffmpeg_release_build/lib --extra-libs='-lpthread -lm' --bindir=/home/aleksandr/bin_release --enable-gpl --enable-libass --enable-libfdk-aac --enable-libfreetype --enable-libmp3lame --enable-libopus --enable-libtheora --enable-libvorbis --enable-libvpx --enable-libx264 --enable-libx265 --enable-nonfree
  libavutil      57.  0.100 / 57.  0.100
  libavcodec     59.  3.101 / 59.  3.101
  libavformat    59.  4.100 / 59.  4.100
  libavdevice    59.  0.100 / 59.  0.100
  libavfilter     8.  0.103 /  8.  0.103
  libswscale      6.  0.100 /  6.  0.100
  libswresample   4.  0.100 /  4.  0.100
  libpostproc    56.  0.100 / 56.  0.100
Input #0, matroska,webm, from '../.././Samples/9_AVC_8bits_3840x2160_60_000fps.mkv':
  Metadata:
    encoder         : Haali Matroska Writer b0
  Duration: 00:00:08.33, start: 0.000000, bitrate: 118015 kb/s
  Stream #0:0(eng): Video: h264 (Main), yuv420p(progressive), 3840x2160 [SAR 1:1 DAR 16:9], 60 fps, 60 tbr, 20k tbn (default)
Stream mapping:
  Stream #0:0 -> #0:0 (h264 (native) -> h264 (libx264))
Press [q] to stop, [?] for help
[libx264 @ 0x56214f94cb40] using SAR=1/1
[libx264 @ 0x56214f94cb40] using cpu capabilities: MMX2 SSE2Fast SSSE3 SSE4.2 AVX FMA3 BMI2 AVX2
[libx264 @ 0x56214f94cb40] profile High, level 5.2
[libx264 @ 0x56214f94cb40] 264 - core 152 r2854 e9a5903 - H.264/MPEG-4 AVC codec - Copyleft 2003-2017 - http://www.videolan.org/x264.html - options: cabac=1 ref=3 deblock=1:0:0 analyse=0x3:0x113 me=hex subme=7 psy=1 psy_rd=1.00:0.00 mixed_ref=1 me_range=16 chroma_me=1 trellis=1 8x8dct=1 cqm=0 deadzone=21,11 fast_pskip=1 chroma_qp_offset=-2 threads=6 lookahead_threads=1 sliced_threads=0 nr=0 decimate=1 interlaced=0 bluray_compat=0 constrained_intra=0 bframes=3 b_pyramid=2 b_adapt=1 b_bias=0 direct=1 weightb=1 open_gop=0 weightp=2 keyint=250 keyint_min=25 scenecut=40 intra_refresh=0 rc_lookahead=40 rc=crf mbtree=1 crf=23.0 qcomp=0.60 qpmin=0 qpmax=69 qpstep=4 ip_ratio=1.40 aq=1:1.00
Output #0, mov, to '/home/aleksandr/Debug-release_tests/Release/Samples/9_AVC_8bits_3840x2160_60_000fps.mkv_tc/output_tc10.mov':
  Metadata:
    encoder         : Lavf59.4.100
  Stream #0:0(eng): Video: h264 (avc1 / 0x31637661), yuv420p(progressive), 3840x2160 [SAR 1:1 DAR 16:9], q=2-31, 60 fps, 15360 tbn (default)
    Metadata:
      encoder         : Lavc59.3.101 libx264
    Side data:
      cpb: bitrate max/min/avg: 0/0/0 buffer size: 0 vbv_delay: N/A
frame=    1 fps=0.0 q=0.0 size=       0kB time=00:00:00.00 bitrate=N/A speed=   0x    frame=   22 fps=0.0 q=0.0 size=       0kB time=00:00:00.00 bitrate=N/A speed=   0x    frame=   41 fps= 36 q=0.0 size=       0kB time=00:00:00.00 bitrate=N/A speed=   0x    frame=   47 fps= 13 q=0.0 size=       0kB time=00:00:00.00 bitrate=N/A speed=   0x    frame=   52 fps= 12 q=31.0 size=     512kB time=-00:00:00.01 bitrate=N/A speed=N/A    frame=   53 fps= 10 q=31.0 size=     768kB time=00:00:00.00 bitrate=96796061.5kbits/s speed=1.29e-05x    frame=   56 fps= 10 q=31.0 size=    1280kB time=00:00:00.05 bitrate=209448.7kbits/s speed=0.00893x    frame=   57 fps=8.3 q=31.0 size=    1280kB time=00:00:00.06 bitrate=157136.7kbits/s speed=0.00972x    frame=   61 fps=7.7 q=31.0 size=    1792kB time=00:00:00.13 bitrate=110049.3kbits/s speed=0.0169x    frame=   65 fps=6.9 q=31.0 size=    2560kB time=00:00:00.20 bitrate=104825.0kbits/s speed=0.0213x    frame=   68 fps=6.9 q=31.0 size=    2816kB time=00:00:00.25 bitrate=92251.9kbits/s speed=0.0253x    frame=   69 fps=6.3 q=31.0 size=    3072kB time=00:00:00.26 bitrate=94349.8kbits/s speed=0.0245x    frame=   73 fps=6.2 q=31.0 size=    3584kB time=00:00:00.33 bitrate=88064.2kbits/s speed=0.0282x    frame=   77 fps=5.6 q=31.0 size=    4096kB time=00:00:00.40 bitrate=83873.2kbits/s speed=0.0293x    frame=   81 fps=5.4 q=31.0 size=    4864kB time=00:00:00.46 bitrate=85372.7kbits/s speed=0.0314x    frame=   85 fps=5.2 q=31.0 size=    5376kB time=00:00:00.53 bitrate=82565.9kbits/s speed=0.0328x    frame=   88 fps=5.2 q=31.0 size=    5632kB time=00:00:00.58 bitrate=79084.3kbits/s speed=0.0348x    frame=   89 fps=5.0 q=31.0 size=    5888kB time=00:00:00.60 bitrate=80382.6kbits/s speed=0.0338x    frame=   93 fps=4.9 q=31.0 size=    6400kB time=00:00:00.66 bitrate=78635.9kbits/s speed=0.0349x    frame=   97 fps=4.7 q=31.0 size=    7168kB time=00:00:00.73 bitrate=80066.4kbits/s speed=0.0358x    frame=  101 fps=4.6 q=31.0 size=    7680kB time=00:00:00.80 bitrate=78637.2kbits/s speed=0.0365x    frame=  105 fps=4.5 q=31.0 size=    8192kB time=00:00:00.86 bitrate=77427.8kbits/s speed=0.0372x    frame=  108 fps=4.5 q=31.0 size=    8704kB time=00:00:00.91 bitrate=77780.0kbits/s speed=0.0385x    frame=  109 fps=4.4 q=31.0 size=    8704kB time=00:00:00.93 bitrate=76391.3kbits/s speed=0.038x    frame=  113 fps=4.3 q=31.0 size=    9472kB time=00:00:01.00 bitrate=77589.9kbits/s speed=0.0381x    frame=  117 fps=4.3 q=31.0 size=    9984kB time=00:00:01.06 bitrate=76672.7kbits/s speed=0.039x    frame=  121 fps=4.2 q=31.0 size=   10496kB time=00:00:01.13 bitrate=75863.5kbits/s speed=0.0395x    frame=  125 fps=4.1 q=31.0 size=   11264kB time=00:00:01.20 bitrate=76891.6kbits/s speed=0.0395x    frame=  129 fps=4.1 q=31.0 size=   11776kB time=00:00:01.26 bitrate=76156.0kbits/s speed=0.0401x    frame=  133 fps=4.0 q=31.0 size=   12288kB time=00:00:01.33 bitrate=75494.0kbits/s speed=0.0398x    frame=  137 fps=4.0 q=31.0 size=   13056kB time=00:00:01.40 bitrate=76392.9kbits/s speed=0.0407x    frame=  141 fps=3.9 q=31.0 size=   13824kB time=00:00:01.46 bitrate=77210.1kbits/s speed=0.0403x    frame=  143 fps=3.9 q=31.0 size=   14080kB time=00:00:01.50 bitrate=76892.4kbits/s speed=0.0406x    frame=  145 fps=3.9 q=31.0 size=   14592kB time=00:00:01.53 bitrate=77956.2kbits/s speed=0.0408x    frame=  148 fps=3.9 q=31.0 size=   15104kB time=00:00:01.58 bitrate=78143.5kbits/s speed=0.0416x    frame=  149 fps=3.7 q=31.0 size=   15360kB time=00:00:01.60 bitrate=78640.2kbits/s speed=0.0402x    frame=  153 fps=3.7 q=31.0 size=   16128kB time=00:00:01.66 bitrate=79269.4kbits/s speed=0.0408x    frame=  156 fps=3.7 q=31.0 size=   16896kB time=00:00:01.71 bitrate=80625.5kbits/s speed=0.0411x    frame=  157 fps=3.6 q=31.0 size=   17152kB time=00:00:01.73 bitrate=81060.1kbits/s speed=0.0402x    frame=  161 fps=3.6 q=31.0 size=   17920kB time=00:00:01.80 bitrate=81553.1kbits/s speed=0.0402x    frame=  162 fps=3.6 q=31.0 size=   18176kB time=00:00:01.81 bitrate=81959.3kbits/s speed=0.0401x    frame=  164 fps=3.6 q=29.0 size=   18688kB time=00:00:01.85 bitrate=82749.7kbits/s speed=0.0401x    frame=  168 fps=3.6 q=31.0 size=   19456kB time=00:00:01.91 bitrate=83154.0kbits/s speed=0.041x    frame=  169 fps=3.5 q=31.0 size=   19968kB time=00:00:01.93 bitrate=84606.6kbits/s speed=0.0404x    frame=  173 fps=3.5 q=31.0 size=   20992kB time=00:00:02.00 bitrate=85980.6kbits/s speed=0.041x    frame=  175 fps=3.5 q=31.0 size=   21760kB time=00:00:02.03 bitrate=87665.2kbits/s speed=0.0404x    frame=  179 fps=3.5 q=31.0 size=   22784kB time=00:00:02.10 bitrate=88876.7kbits/s speed=0.0405x    frame=  182 fps=3.5 q=31.0 size=   23296kB time=00:00:02.15 bitrate=88760.6kbits/s speed=0.0411x    frame=  183 fps=3.4 q=31.0 size=   23808kB time=00:00:02.16 bitrate=90013.6kbits/s speed=0.0405x    frame=  185 fps=3.4 q=31.0 size=   24064kB time=00:00:02.20 bitrate=89603.1kbits/s speed=0.0407x    frame=  187 fps=3.4 q=31.0 size=   24832kB time=00:00:02.23 bitrate=91082.8kbits/s speed=0.0403x    frame=  191 fps=3.4 q=31.0 size=   25856kB time=00:00:02.30 bitrate=92089.8kbits/s speed=0.0405x    frame=  193 fps=3.4 q=31.0 size=   26112kB time=00:00:02.33 bitrate=91673.1kbits/s speed=0.0406x    frame=  194 fps=3.3 q=31.0 size=   26624kB time=00:00:02.35 bitrate=92807.7kbits/s speed=0.0405x    frame=  195 fps=3.3 q=31.0 size=   26880kB time=00:00:02.36 bitrate=93040.2kbits/s speed=0.0399x    frame=  198 fps=3.3 q=31.0 size=   27648kB time=00:00:02.41 bitrate=93718.6kbits/s speed=0.0402x    frame=  199 fps=3.3 q=31.0 size=   27904kB time=00:00:02.43 bitrate=93938.5kbits/s speed=0.04x    frame=  203 fps=3.3 q=31.0 size=   28928kB time=00:00:02.50 bitrate=94788.9kbits/s speed=0.0403x    frame=  205 fps=3.3 q=31.0 size=   29440kB time=00:00:02.53 bitrate=95197.3kbits/s speed=0.0404x    frame=  207 fps=3.2 q=31.0 size=   29952kB time=00:00:02.56 bitrate=95595.1kbits/s speed=0.04x    frame=  211 fps=3.2 q=31.0 size=   31232kB time=00:00:02.63 bitrate=97156.9kbits/s speed=0.0402x    frame=  213 fps=3.2 q=31.0 size=   31488kB time=00:00:02.66 bitrate=96728.9kbits/s speed=0.0403x    frame=  215 fps=3.2 q=31.0 size=   32256kB time=00:00:02.70 bitrate=97864.8kbits/s speed=0.0399x    frame=  219 fps=3.2 q=31.0 size=   33280kB time=00:00:02.76 bitrate=98538.7kbits/s speed=0.04x    frame=  221 fps=3.2 q=31.0 size=   33536kB time=00:00:02.80 bitrate=98114.6kbits/s speed=0.0401x    frame=  223 fps=3.1 q=31.0 size=   34560kB time=00:00:02.83 bitrate=99920.9kbits/s speed=0.0398x    frame=  226 fps=3.2 q=31.0 size=   35328kB time=00:00:02.88 bitrate=100370.2kbits/s speed=0.0402x    frame=  227 fps=3.1 q=31.0 size=   35584kB time=00:00:02.90 bitrate=100516.5kbits/s speed=0.0399x    frame=  228 fps=3.1 q=31.0 size=   35840kB time=00:00:02.91 bitrate=100661.1kbits/s speed=0.0398x    frame=  231 fps=3.1 q=31.0 size=   36608kB time=00:00:02.96 bitrate=101085.3kbits/s speed=0.0397x    frame=  235 fps=3.1 q=31.0 size=   37632kB time=00:00:03.03 bitrate=101629.1kbits/s speed=0.04x    frame=  237 fps=3.1 q=31.0 size=   38144kB time=00:00:03.06 bitrate=101892.2kbits/s speed=0.0401x    frame=  239 fps=3.1 q=31.0 size=   38912kB time=00:00:03.10 bitrate=102826.0kbits/s speed=0.0396x    frame=  243 fps=3.1 q=31.0 size=   39936kB time=00:00:03.16 bitrate=103310.3kbits/s speed=0.04x    frame=  245 fps=3.1 q=31.0 size=   40448kB time=00:00:03.20 bitrate=103544.9kbits/s speed=0.0401x    frame=  246 fps=3.1 q=31.0 size=   40704kB time=00:00:03.21 bitrate=103660.3kbits/s speed=0.04x    frame=  247 fps=3.0 q=31.0 size=   40960kB time=00:00:03.23 bitrate=103774.6kbits/s speed=0.0396x    frame=  251 fps=3.0 q=31.0 size=   42240kB time=00:00:03.30 bitrate=104855.6kbits/s speed=0.0397x    frame=  253 fps=3.0 q=31.0 size=   42496kB time=00:00:03.33 bitrate=104436.2kbits/s speed=0.0398x    frame=  255 fps=3.0 q=31.0 size=   43264kB time=00:00:03.36 bitrate=105270.9kbits/s speed=0.0396x    frame=  257 fps=3.0 q=31.0 size=   43776kB time=00:00:03.40 bitrate=105472.5kbits/s speed=0.0397x    frame=  259 fps=3.0 q=31.0 size=   44544kB time=00:00:03.43 bitrate=106280.9kbits/s speed=0.0395x    frame=  263 fps=3.0 q=31.0 size=   45568kB time=00:00:03.50 bitrate=106653.3kbits/s speed=0.0395x    frame=  265 fps=3.0 q=31.0 size=   46080kB time=00:00:03.53 bitrate=106834.2kbits/s speed=0.0396x    frame=  267 fps=2.9 q=31.0 size=   46848kB time=00:00:03.56 bitrate=107599.6kbits/s speed=0.0393x    frame=  268 fps=2.9 q=31.0 size=   47104kB time=00:00:03.58 bitrate=107684.5kbits/s speed=0.0392x    frame=  271 fps=2.9 q=31.0 size=   47872kB time=00:00:03.63 bitrate=107934.1kbits/s speed=0.0393x    frame=  275 fps=2.9 q=31.0 size=   49152kB time=00:00:03.70 bitrate=108823.4kbits/s speed=0.0393x    frame=  279 fps=2.9 q=31.0 size=   50176kB time=00:00:03.76 bitrate=109124.3kbits/s speed=0.0393x    frame=  283 fps=2.9 q=31.0 size=   51456kB time=00:00:03.83 bitrate=109961.9kbits/s speed=0.0393x    frame=  287 fps=2.9 q=31.0 size=   52480kB time=00:00:03.90 bitrate=110233.1kbits/s speed=0.0392x    frame=  291 fps=2.9 q=31.0 size=   53760kB time=00:00:03.96 bitrate=111023.9kbits/s speed=0.0392x    frame=  293 fps=2.9 q=31.0 size=   54016kB time=00:00:04.00 bitrate=110623.0kbits/s speed=0.0393x    frame=  294 fps=2.9 q=31.0 size=   54528kB time=00:00:04.01 bitrate=111208.2kbits/s speed=0.0389x    frame=  299 fps=2.8 q=31.0 size=   55808kB time=00:00:04.10 bitrate=111505.4kbits/s speed=0.0388x    frame=  305 fps=2.9 q=31.0 size=   58368kB time=00:00:04.20 bitrate=113843.7kbits/s speed=0.0393x    frame=  306 fps=2.8 q=31.0 size=   58624kB time=00:00:04.21 bitrate=113891.1kbits/s speed=0.0392x    frame=  310 fps=2.8 q=31.0 size=   59648kB time=00:00:04.28 bitrate=114076.9kbits/s speed=0.0391x    frame=  314 fps=2.8 q=31.0 size=   60672kB time=00:00:04.35 bitrate=114257.0kbits/s speed=0.0392x    frame=  316 fps=2.8 q=31.0 size=   61184kB time=00:00:04.38 bitrate=114345.0kbits/s speed=0.0393x    frame=  318 fps=2.8 q=31.0 size=   61696kB time=00:00:04.41 bitrate=114431.6kbits/s speed=0.0392x    frame=  322 fps=2.8 q=31.0 size=   62976kB time=00:00:04.48 bitrate=115068.9kbits/s speed=0.0392x    frame=  324 fps=2.8 q=31.0 size=   63232kB time=00:00:04.51 bitrate=114684.0kbits/s speed=0.0393x    frame=  326 fps=2.8 q=31.0 size=   64000kB time=00:00:04.55 bitrate=115226.5kbits/s speed=0.0392x    frame=  329 fps=2.8 q=31.0 size=   64512kB time=00:00:04.60 bitrate=114885.9kbits/s speed=0.0395x    frame=  330 fps=2.8 q=31.0 size=   64768kB time=00:00:04.61 bitrate=114925.4kbits/s speed=0.0392x    frame=  334 fps=2.8 q=31.0 size=   65792kB time=00:00:04.68 bitrate=115080.6kbits/s speed=0.0392x    frame=  338 fps=2.8 q=31.0 size=   66816kB time=00:00:04.75 bitrate=115231.5kbits/s speed=0.0394x    frame=  340 fps=2.8 q=31.0 size=   67072kB time=00:00:04.78 bitrate=114866.9kbits/s speed=0.0395x    frame=  342 fps=2.8 q=31.0 size=   67840kB time=00:00:04.81 bitrate=115378.1kbits/s speed=0.0392x    frame=  346 fps=2.8 q=31.0 size=   68864kB time=00:00:04.88 bitrate=115520.8kbits/s speed=0.0393x    frame=  350 fps=2.8 q=31.0 size=   69632kB time=00:00:04.95 bitrate=115236.0kbits/s speed=0.0394x    frame=  354 fps=2.8 q=31.0 size=   70656kB time=00:00:05.01 bitrate=115376.8kbits/s speed=0.0393x    frame=  358 fps=2.8 q=31.0 size=   71680kB time=00:00:05.08 bitrate=115513.8kbits/s speed=0.0395x    frame=  362 fps=2.8 q=31.0 size=   72448kB time=00:00:05.15 bitrate=115240.2kbits/s speed=0.0394x    frame=  366 fps=2.8 q=31.0 size=   73472kB time=00:00:05.21 bitrate=115375.5kbits/s speed=0.0396x    frame=  370 fps=2.8 q=31.0 size=   74240kB time=00:00:05.28 bitrate=115110.5kbits/s speed=0.0396x    frame=  374 fps=2.8 q=31.0 size=   75264kB time=00:00:05.35 bitrate=115244.0kbits/s speed=0.0397x    frame=  376 fps=2.8 q=31.0 size=   75520kB time=00:00:05.38 bitrate=114920.0kbits/s speed=0.0398x    frame=  378 fps=2.8 q=31.0 size=   76032kB time=00:00:05.41 bitrate=114987.1kbits/s speed=0.0397x    frame=  382 fps=2.8 q=31.0 size=   77056kB time=00:00:05.48 bitrate=115119.0kbits/s speed=0.0398x    frame=  384 fps=2.8 q=31.0 size=   77056kB time=00:00:05.51 bitrate=114423.4kbits/s speed=0.0398x    frame=  386 fps=2.8 q=31.0 size=   77824kB time=00:00:05.55 bitrate=114869.7kbits/s speed=0.0399x    frame=  390 fps=2.8 q=31.0 size=   78592kB time=00:00:05.61 bitrate=114626.4kbits/s speed=0.0397x    frame=  394 fps=2.8 q=31.0 size=   79616kB time=00:00:05.68 bitrate=114757.9kbits/s speed=0.0399x    frame=  398 fps=2.8 q=31.0 size=   80384kB time=00:00:05.75 bitrate=114521.5kbits/s speed=0.0399x    frame=  402 fps=2.8 q=31.0 size=   81152kB time=00:00:05.81 bitrate=114290.5kbits/s speed=0.04x    frame=  406 fps=2.8 q=31.0 size=   81920kB time=00:00:05.88 bitrate=114064.9kbits/s speed=0.04x    frame=  410 fps=2.8 q=31.0 size=   82688kB time=00:00:05.95 bitrate=113844.2kbits/s speed=0.0402x    frame=  414 fps=2.8 q=31.0 size=   83456kB time=00:00:06.01 bitrate=113628.4kbits/s speed=0.04x    frame=  418 fps=2.8 q=31.0 size=   84480kB time=00:00:06.08 bitrate=113762.2kbits/s speed=0.0402x    frame=  422 fps=2.8 q=31.0 size=   85248kB time=00:00:06.15 bitrate=113552.0kbits/s speed=0.0402x    frame=  424 fps=2.8 q=31.0 size=   85248kB time=00:00:06.18 bitrate=112939.8kbits/s speed=0.0403x    frame=  426 fps=2.8 q=31.0 size=   86016kB time=00:00:06.21 bitrate=113346.3kbits/s speed=0.0402x    frame=  430 fps=2.8 q=31.0 size=   86784kB time=00:00:06.28 bitrate=113145.0kbits/s speed=0.0402x    frame=  434 fps=2.8 q=31.0 size=   87552kB time=00:00:06.35 bitrate=112947.9kbits/s speed=0.0404x    frame=  438 fps=2.8 q=31.0 size=   88320kB time=00:00:06.41 bitrate=112754.9kbits/s speed=0.0404x    frame=  442 fps=2.8 q=31.0 size=   89088kB time=00:00:06.48 bitrate=112565.8kbits/s speed=0.0405x    frame=  446 fps=2.8 q=31.0 size=   89856kB time=00:00:06.55 bitrate=112380.7kbits/s speed=0.0405x    frame=  450 fps=2.8 q=31.0 size=   90624kB time=00:00:06.61 bitrate=112199.2kbits/s speed=0.0406x    frame=  454 fps=2.8 q=31.0 size=   91392kB time=00:00:06.68 bitrate=112021.4kbits/s speed=0.0407x    frame=  455 fps=2.8 q=31.0 size=   91392kB time=00:00:06.70 bitrate=111742.7kbits/s speed=0.0407x    frame=  458 fps=2.8 q=31.0 size=   92160kB time=00:00:06.75 bitrate=111847.1kbits/s speed=0.0406x    frame=  462 fps=2.8 q=31.0 size=   92928kB time=00:00:06.81 bitrate=111676.2kbits/s speed=0.0408x    frame=  464 fps=2.8 q=31.0 size=   92928kB time=00:00:06.85 bitrate=111132.7kbits/s speed=0.0409x    frame=  466 fps=2.8 q=31.0 size=   93440kB time=00:00:06.88 bitrate=111203.9kbits/s speed=0.0407x    frame=  470 fps=2.8 q=31.0 size=   94208kB time=00:00:06.95 bitrate=111042.4kbits/s speed=0.0409x    frame=  474 fps=2.8 q=31.0 size=   94976kB time=00:00:07.01 bitrate=110884.1kbits/s speed=0.0408x    frame=  478 fps=2.8 q=31.0 size=   95744kB time=00:00:07.08 bitrate=110728.7kbits/s speed=0.0409x    frame=  482 fps=2.8 q=31.0 size=   96512kB time=00:00:07.15 bitrate=110576.1kbits/s speed=0.0409x    frame=  485 fps=2.8 q=31.0 size=   97024kB time=00:00:07.20 bitrate=110390.8kbits/s speed=0.041x    frame=  488 fps=2.8 q=31.0 size=   97280kB time=00:00:07.25 bitrate=109918.7kbits/s speed=0.0412x    frame=  490 fps=2.8 q=31.0 size=   97792kB time=00:00:07.28 bitrate=109991.6kbits/s speed=0.0411x    frame=  496 fps=2.8 q=31.0 size=   99072kB time=00:00:07.38 bitrate=109922.0kbits/s speed=0.0413x    frame=  498 fps=2.8 q=31.0 size=   99584kB time=00:00:07.41 bitrate=109993.5kbits/s speed=0.0412x    frame=  500 fps=2.6 q=-1.0 Lsize=  108910kB time=00:00:08.28 bitrate=107708.4kbits/s speed=0.0424x    
video:108903kB audio:0kB subtitle:0kB other streams:0kB global headers:0kB muxing overhead: 0.006776%
[libx264 @ 0x56214f94cb40] frame I:4     Avg QP:28.90  size:629751
[libx264 @ 0x56214f94cb40] frame P:126   Avg QP:31.19  size:376756
[libx264 @ 0x56214f94cb40] frame B:370   Avg QP:32.33  size:166285
[libx264 @ 0x56214f94cb40] consecutive B-frames:  1.0%  0.8%  0.6% 97.6%
[libx264 @ 0x56214f94cb40] mb I  I16..4: 10.2% 48.3% 41.5%
[libx264 @ 0x56214f94cb40] mb P  I16..4:  2.2% 19.4%  6.0%  P16..4: 35.4% 28.9%  7.4%  0.0%  0.0%    skip: 0.8%
[libx264 @ 0x56214f94cb40] mb B  I16..4:  0.1%  1.2%  0.5%  B16..8: 45.0% 11.6%  3.5%  direct:12.4%  skip:25.6%  L0:42.8% L1:44.8% BI:12.3%
[libx264 @ 0x56214f94cb40] 8x8 transform intra:68.0% inter:53.3%
[libx264 @ 0x56214f94cb40] coded y,uvDC,uvAC intra: 88.1% 84.8% 44.6% inter: 42.6% 33.2% 3.4%
[libx264 @ 0x56214f94cb40] i16 v,h,dc,p:  1% 69%  6% 24%
[libx264 @ 0x56214f94cb40] i8 v,h,dc,ddl,ddr,vr,hd,vl,hu:  3% 41%  7%  4%  6%  3% 17%  3% 16%
[libx264 @ 0x56214f94cb40] i4 v,h,dc,ddl,ddr,vr,hd,vl,hu:  4% 40% 10%  5%  7%  3% 15%  3% 13%
[libx264 @ 0x56214f94cb40] i8c dc,h,v,p: 42% 45%  5%  8%
[libx264 @ 0x56214f94cb40] Weighted P-Frames: Y:1.6% UV:0.0%
[libx264 @ 0x56214f94cb40] ref P L0: 48.9% 16.6% 22.8% 11.6%  0.1%
[libx264 @ 0x56214f94cb40] ref B L0: 92.8%  5.1%  2.0%
[libx264 @ 0x56214f94cb40] ref B L1: 99.2%  0.8%
[libx264 @ 0x56214f94cb40] kb/s:107055.08
	Command being timed: "/home/aleksandr/bin_release/ffmpeg -i ../.././Samples/9_AVC_8bits_3840x2160_60_000fps.mkv -c:v libx264 -f mov /home/aleksandr/Debug-release_tests/Release/Samples/9_AVC_8bits_3840x2160_60_000fps.mkv_tc/output_tc10.mov"
	User time (seconds): 764.22
	System time (seconds): 1.83
	Percent of CPU this job got: 391%
	Elapsed (wall clock) time (h:mm:ss or m:ss): 3:15.66
	Average shared text size (kbytes): 0
	Average unshared data size (kbytes): 0
	Average stack size (kbytes): 0
	Average total size (kbytes): 0
	Maximum resident set size (kbytes): 2088800
	Average resident set size (kbytes): 0
	Major (requiring I/O) page faults: 0
	Minor (reclaiming a frame) page faults: 265349
	Voluntary context switches: 19048
	Involuntary context switches: 75246
	Swaps: 0
	File system inputs: 0
	File system outputs: 217968
	Socket messages sent: 0
	Socket messages received: 0
	Signals delivered: 0
	Page size (bytes): 4096
	Exit status: 0
